# Blender 3.6.5
# www.blender.org
mtllib Obstacle_1.mtl
o Obstacle
v 0.007498 -1.254307 -2.360672
v 0.007498 0.134434 -2.360672
v 0.463341 -1.254307 -2.315774
v 0.463341 0.134434 -2.315774
v 0.901666 -1.254307 -2.182810
v 0.901666 0.134434 -2.182810
v 1.305628 -1.254307 -1.966886
v 1.305628 0.134434 -1.966886
v 1.659704 -1.254307 -1.676304
v 1.659704 0.134434 -1.676304
v 1.950288 -1.254307 -1.322228
v 1.950288 0.134434 -1.322228
v 2.166210 -1.254307 -0.918264
v 2.166210 0.134434 -0.918264
v 2.299175 -1.254307 -0.479940
v 2.299175 0.134434 -0.479940
v 2.344072 -1.254307 -0.024097
v 2.344072 0.134434 -0.024097
v 2.299175 -1.254307 0.431747
v 2.299175 0.134434 0.431747
v 2.166210 -1.254306 0.870071
v 2.166210 0.134434 0.870070
v 1.950288 -1.254306 1.274034
v 1.950288 0.134434 1.274034
v 1.659704 -1.254306 1.628110
v 1.659704 0.134434 1.628110
v 1.305628 -1.254306 1.918693
v 1.305628 0.134434 1.918693
v 0.901666 -1.254306 2.134615
v 0.901666 0.134434 2.134615
v 0.463341 -1.254306 2.267581
v 0.463341 0.134434 2.267581
v 0.007498 -1.254306 2.312477
v 0.007498 0.134434 2.312477
v -0.448345 -1.254306 2.267581
v -0.448345 0.134434 2.267581
v -0.886670 -1.254306 2.134615
v -0.886670 0.134434 2.134615
v -1.290632 -1.254306 1.918693
v -1.290632 0.134434 1.918693
v -1.644707 -1.254306 1.628110
v -1.644707 0.134434 1.628110
v -1.935292 -1.254306 1.274034
v -1.935292 0.134434 1.274034
v -2.151214 -1.254306 0.870071
v -2.151214 0.134434 0.870070
v -2.284179 -1.254307 0.431747
v -2.284179 0.134434 0.431747
v -2.329074 -1.254307 -0.024097
v -2.329074 0.134434 -0.024097
v -2.284179 -1.254307 -0.479940
v -2.284179 0.134434 -0.479940
v -2.151214 -1.254307 -0.918264
v -2.151214 0.134434 -0.918264
v -1.935292 -1.254307 -1.322228
v -1.935292 0.134434 -1.322228
v -1.644707 -1.254307 -1.676304
v -1.644707 0.134434 -1.676304
v -1.290632 -1.254307 -1.966886
v -1.290632 0.134434 -1.966886
v -0.886670 -1.254307 -2.182810
v -0.886670 0.134434 -2.182810
v -0.448345 -1.254307 -2.315774
v -0.448345 0.134434 -2.315774
v 0.412860 1.134542 -2.061990
v 0.007498 1.134542 -2.101916
v 0.802644 1.134542 -1.943752
v 1.161872 1.134542 -1.751740
v 1.476738 1.134542 -1.493336
v 1.735141 1.134542 -1.178472
v 1.927152 1.134542 -0.819244
v 2.045392 1.134542 -0.429459
v 2.085317 1.134542 -0.024098
v 2.045392 1.134542 0.381265
v 1.927152 1.134542 0.771049
v 1.735141 1.134542 1.130276
v 1.476738 1.134542 1.445141
v 1.161872 1.134542 1.703546
v 0.802644 1.134543 1.895556
v 0.412860 1.134543 2.013795
v 0.007498 1.134543 2.053721
v -0.397864 1.134543 2.013795
v -0.787648 1.134543 1.895556
v -1.146876 1.134542 1.703546
v -1.461741 1.134542 1.445142
v -1.720144 1.134542 1.130276
v -1.912155 1.134542 0.771049
v -2.030396 1.134542 0.381265
v -2.070319 1.134542 -0.024098
v -2.030396 1.134542 -0.429459
v -1.912155 1.134542 -0.819244
v -1.720144 1.134542 -1.178472
v -1.461741 1.134542 -1.493337
v -1.146876 1.134542 -1.751740
v -0.787648 1.134542 -1.943752
v -0.397864 1.134542 -2.061990
v 0.708681 1.134542 -3.549185
v 0.007498 1.134542 -3.618244
v 1.382918 1.134542 -3.344657
v 2.004301 1.134542 -3.012522
v 2.548944 1.134542 -2.565544
v 2.995922 1.134542 -2.020898
v 3.328057 1.134542 -1.399518
v 3.532584 1.134542 -0.725281
v 3.601646 1.134542 -0.024098
v 3.532584 1.134542 0.677085
v 3.328057 1.134542 1.351322
v 2.995922 1.134543 1.972704
v 2.548944 1.134543 2.517349
v 2.004301 1.134543 2.964327
v 1.382918 1.134543 3.296461
v 0.708681 1.134543 3.500990
v 0.007498 1.134543 3.570050
v -0.693686 1.134543 3.500990
v -1.367921 1.134543 3.296461
v -1.989304 1.134543 2.964327
v -2.533947 1.134543 2.517349
v -2.980925 1.134543 1.972704
v -3.313061 1.134542 1.351322
v -3.517589 1.134542 0.677085
v -3.586649 1.134542 -0.024098
v -3.517589 1.134542 -0.725281
v -3.313061 1.134542 -1.399518
v -2.980925 1.134542 -2.020898
v -2.533947 1.134542 -2.565544
v -1.989304 1.134542 -3.012522
v -1.367921 1.134542 -3.344657
v -0.693686 1.134542 -3.549185
v 0.412860 1.916679 -2.061990
v 0.007498 1.916679 -2.101916
v 0.802645 1.916679 -1.943752
v 1.161872 1.916679 -1.751740
v 1.476738 1.916679 -1.493336
v 1.735141 1.916679 -1.178472
v 1.927152 1.916679 -0.819244
v 2.045392 1.916679 -0.429459
v 2.085317 1.916679 -0.024098
v 2.045392 1.916679 0.381265
v 1.927152 1.916680 0.771049
v 1.735141 1.916680 1.130276
v 1.476738 1.916680 1.445141
v 1.161872 1.916680 1.703546
v 0.802644 1.916680 1.895556
v 0.412860 1.916680 2.013795
v 0.007498 1.916680 2.053720
v -0.397864 1.916680 2.013795
v -0.787648 1.916680 1.895556
v -1.146876 1.916680 1.703546
v -1.461741 1.916680 1.445142
v -1.720144 1.916680 1.130276
v -1.912155 1.916680 0.771049
v -2.030396 1.916679 0.381265
v -2.070319 1.916679 -0.024098
v -2.030396 1.916679 -0.429459
v -1.912155 1.916679 -0.819244
v -1.720144 1.916679 -1.178472
v -1.461741 1.916679 -1.493337
v -1.146876 1.916679 -1.751740
v -0.787648 1.916679 -1.943752
v -0.397864 1.916679 -2.061990
vn 0.0980 -0.0000 -0.9952
vn 0.2903 -0.0000 -0.9569
vn 0.4714 -0.0000 -0.8819
vn 0.6344 -0.0000 -0.7730
vn 0.7730 -0.0000 -0.6344
vn 0.8819 -0.0000 -0.4714
vn 0.9569 -0.0000 -0.2903
vn 0.9952 -0.0000 -0.0980
vn 0.9952 -0.0000 0.0980
vn 0.9569 -0.0000 0.2903
vn 0.8819 -0.0000 0.4714
vn 0.7730 -0.0000 0.6344
vn 0.6344 -0.0000 0.7730
vn 0.4714 -0.0000 0.8819
vn 0.2903 -0.0000 0.9569
vn 0.0980 -0.0000 0.9952
vn -0.0980 -0.0000 0.9952
vn -0.2903 -0.0000 0.9569
vn -0.4714 -0.0000 0.8819
vn -0.6344 -0.0000 0.7730
vn -0.7730 -0.0000 0.6344
vn -0.8819 -0.0000 0.4714
vn -0.9569 -0.0000 0.2903
vn -0.9952 -0.0000 0.0980
vn -0.9952 -0.0000 -0.0980
vn -0.9569 -0.0000 -0.2903
vn -0.8819 -0.0000 -0.4714
vn -0.7730 -0.0000 -0.6344
vn -0.6344 -0.0000 -0.7730
vn -0.4714 -0.0000 -0.8819
vn 0.5974 -0.7812 0.1812
vn -0.2903 -0.0000 -0.9569
vn -0.0980 -0.0000 -0.9952
vn -0.0000 -1.0000 -0.0000
vn -0.2943 -0.7812 0.5506
vn -0.4826 -0.7812 -0.3960
vn 0.5506 -0.7812 -0.2943
vn 0.1812 -0.7812 0.5974
vn -0.6213 -0.7812 0.0612
vn 0.1812 -0.7812 -0.5974
vn 0.5506 -0.7812 0.2943
vn -0.3960 -0.7812 0.4826
vn -0.3960 -0.7812 -0.4826
vn 0.5974 -0.7812 -0.1812
vn 0.0612 -0.7812 0.6213
vn -0.6213 -0.7812 -0.0612
vn 0.2943 -0.7812 -0.5506
vn 0.4826 -0.7812 0.3960
vn -0.4826 -0.7812 0.3960
vn -0.2943 -0.7812 -0.5506
vn 0.6213 -0.7812 -0.0612
vn -0.0612 -0.7812 0.6213
vn -0.5974 -0.7812 -0.1812
vn 0.3960 -0.7812 -0.4826
vn 0.3960 -0.7812 0.4826
vn -0.5506 -0.7812 0.2943
vn -0.1812 -0.7812 -0.5974
vn 0.6213 -0.7812 0.0612
vn -0.1812 -0.7812 0.5974
vn -0.5506 -0.7812 -0.2943
vn 0.4826 -0.7812 -0.3960
vn 0.2943 -0.7812 0.5506
vn -0.5974 -0.7812 0.1812
vn 0.0612 -0.7812 -0.6213
vn -0.0612 -0.7812 -0.6213
vn -0.0000 1.0000 -0.0000
vt 1.000000 1.000000
vt 0.968750 0.500000
vt 1.000000 0.500000
vt 0.968750 1.000000
vt 0.937500 0.500000
vt 0.937500 1.000000
vt 0.906250 0.500000
vt 0.906250 1.000000
vt 0.875000 0.500000
vt 0.875000 1.000000
vt 0.843750 0.500000
vt 0.843750 1.000000
vt 0.812500 0.500000
vt 0.812500 1.000000
vt 0.781250 0.500000
vt 0.781250 1.000000
vt 0.750000 0.500000
vt 0.750000 1.000000
vt 0.718750 0.500000
vt 0.718750 1.000000
vt 0.687500 0.500000
vt 0.687500 1.000000
vt 0.656250 0.500000
vt 0.656250 1.000000
vt 0.625000 0.500000
vt 0.625000 1.000000
vt 0.593750 0.500000
vt 0.593750 1.000000
vt 0.562500 0.500000
vt 0.562500 1.000000
vt 0.531250 0.500000
vt 0.531250 1.000000
vt 0.500000 0.500000
vt 0.500000 1.000000
vt 0.468750 0.500000
vt 0.468750 1.000000
vt 0.437500 0.500000
vt 0.437500 1.000000
vt 0.406250 0.500000
vt 0.406250 1.000000
vt 0.375000 0.500000
vt 0.375000 1.000000
vt 0.343750 0.500000
vt 0.343750 1.000000
vt 0.312500 0.500000
vt 0.312500 1.000000
vt 0.281250 0.500000
vt 0.281250 1.000000
vt 0.250000 0.500000
vt 0.250000 1.000000
vt 0.218750 0.500000
vt 0.218750 1.000000
vt 0.187500 0.500000
vt 0.187500 1.000000
vt 0.156250 0.500000
vt 0.156250 1.000000
vt 0.125000 0.500000
vt 0.125000 1.000000
vt 0.093750 0.500000
vt 0.093750 1.000000
vt 0.062500 0.500000
vt 0.062500 1.000000
vt 0.031250 0.500000
vt 0.031250 1.000000
vt 0.000000 0.500000
vt 0.796822 0.014612
vt 0.514612 0.203178
vt 0.703178 0.485388
vt 0.151891 0.151891
vt 0.134636 0.172916
vt 0.000000 1.000000
vt 0.250000 0.388747
vt 0.296822 0.485388
vt 0.250000 0.490000
vt 0.303096 0.378185
vt 0.277068 0.386081
vt 0.327084 0.365364
vt 0.341844 0.471731
vt 0.419706 0.419706
vt 0.383337 0.449553
vt 0.365364 0.327084
vt 0.348109 0.348109
vt 0.471731 0.341844
vt 0.449553 0.383337
vt 0.378185 0.303096
vt 0.485388 0.296822
vt 0.388747 0.250000
vt 0.386081 0.277068
vt 0.485388 0.203178
vt 0.490000 0.250000
vt 0.386081 0.222932
vt 0.471731 0.158156
vt 0.365364 0.172916
vt 0.378185 0.196904
vt 0.348109 0.151891
vt 0.449553 0.116663
vt 0.327084 0.134636
vt 0.419706 0.080294
vt 0.341844 0.028269
vt 0.383337 0.050447
vt 0.303096 0.121815
vt 0.296822 0.014612
vt 0.250000 0.111253
vt 0.277068 0.113919
vt 0.203178 0.014612
vt 0.250000 0.010000
vt 0.196904 0.121815
vt 0.222932 0.113919
vt 0.172916 0.134636
vt 0.158156 0.028269
vt 0.116663 0.050447
vt 0.050447 0.116663
vt 0.080294 0.080294
vt 0.028269 0.158156
vt 0.113919 0.222932
vt 0.121815 0.196904
vt 0.010000 0.250000
vt 0.014612 0.203178
vt 0.113919 0.277068
vt 0.111253 0.250000
vt 0.121815 0.303096
vt 0.014612 0.296822
vt 0.050447 0.383337
vt 0.028269 0.341844
vt 0.151891 0.348109
vt 0.134636 0.327084
vt 0.116663 0.449553
vt 0.080294 0.419706
vt 0.196904 0.378185
vt 0.172916 0.365364
vt 0.203178 0.485388
vt 0.158156 0.471731
vt 0.222932 0.386081
vt 0.750000 0.490000
vt 0.796822 0.485388
vt 0.841844 0.471731
vt 0.883337 0.449553
vt 0.919706 0.419706
vt 0.949553 0.383337
vt 0.971731 0.341844
vt 0.985388 0.296822
vt 0.990000 0.250000
vt 0.985388 0.203178
vt 0.971731 0.158156
vt 0.949553 0.116663
vt 0.919706 0.080294
vt 0.883337 0.050447
vt 0.841844 0.028269
vt 0.750000 0.010000
vt 0.703178 0.014612
vt 0.658156 0.028269
vt 0.616663 0.050447
vt 0.580294 0.080294
vt 0.550447 0.116663
vt 0.528269 0.158156
vt 0.510000 0.250000
vt 0.514612 0.296822
vt 0.528269 0.341844
vt 0.550447 0.383337
vt 0.580294 0.419706
vt 0.616663 0.449553
vt 0.658156 0.471731
s 0
usemtl Material.015
f 2/1/1 3/2/1 1/3/1
f 4/4/2 5/5/2 3/2/2
f 6/6/3 7/7/3 5/5/3
f 8/8/4 9/9/4 7/7/4
f 10/10/5 11/11/5 9/9/5
f 12/12/6 13/13/6 11/11/6
f 14/14/7 15/15/7 13/13/7
f 16/16/8 17/17/8 15/15/8
f 18/18/9 19/19/9 17/17/9
f 20/20/10 21/21/10 19/19/10
f 22/22/11 23/23/11 21/21/11
f 24/24/12 25/25/12 23/23/12
f 26/26/13 27/27/13 25/25/13
f 28/28/14 29/29/14 27/27/14
f 30/30/15 31/31/15 29/29/15
f 32/32/16 33/33/16 31/31/16
f 34/34/17 35/35/17 33/33/17
f 36/36/18 37/37/18 35/35/18
f 38/38/19 39/39/19 37/37/19
f 40/40/20 41/41/20 39/39/20
f 42/42/21 43/43/21 41/41/21
f 44/44/22 45/45/22 43/43/22
f 46/46/23 47/47/23 45/45/23
f 48/48/24 49/49/24 47/47/24
f 50/50/25 51/51/25 49/49/25
f 52/52/26 53/53/26 51/51/26
f 54/54/27 55/55/27 53/53/27
f 56/56/28 57/57/28 55/55/28
f 58/58/29 59/59/29 57/57/29
f 60/60/30 61/61/30 59/59/30
f 20/20/31 107/22/31 22/22/31
f 62/62/32 63/63/32 61/61/32
f 64/64/33 1/65/33 63/63/33
f 31/66/34 47/67/34 63/68/34
f 85/69/21 150/70/21 86/70/21
f 38/38/35 116/40/35 40/40/35
f 58/58/36 124/56/36 125/58/36
f 12/12/37 103/14/37 14/14/37
f 30/30/38 112/32/38 32/32/38
f 48/48/39 121/50/39 50/50/39
f 4/4/40 99/6/40 6/6/40
f 24/24/41 107/22/41 108/24/41
f 42/42/42 116/40/42 117/42/42
f 60/60/43 125/58/43 126/60/43
f 16/16/44 103/14/44 104/16/44
f 34/34/45 112/32/45 113/34/45
f 52/52/46 121/50/46 122/52/46
f 8/8/47 99/6/47 100/8/47
f 24/24/48 109/26/48 26/26/48
f 44/44/49 117/42/49 118/44/49
f 62/62/50 126/60/50 127/62/50
f 16/16/51 105/18/51 18/18/51
f 36/36/52 113/34/52 114/36/52
f 52/52/53 123/54/53 54/54/53
f 8/8/54 101/10/54 10/10/54
f 28/28/55 109/26/55 110/28/55
f 44/44/56 119/46/56 46/46/56
f 62/62/57 128/64/57 64/64/57
f 20/20/58 105/18/58 106/20/58
f 36/36/59 115/38/59 38/38/59
f 54/54/60 124/56/60 56/56/60
f 12/12/61 101/10/61 102/12/61
f 30/30/62 110/28/62 111/30/62
f 48/48/63 119/46/63 120/48/63
f 2/1/64 97/4/64 4/4/64
f 2/71/65 128/64/65 98/71/65
f 66/72/66 97/73/66 98/74/66
f 67/75/66 97/73/66 65/76/66
f 68/77/66 99/78/66 67/75/66
f 68/77/66 101/79/66 100/80/66
f 70/81/66 101/79/66 69/82/66
f 70/81/66 103/83/66 102/84/66
f 71/85/66 104/86/66 103/83/66
f 73/87/66 104/86/66 72/88/66
f 73/87/66 106/89/66 105/90/66
f 74/91/66 107/92/66 106/89/66
f 76/93/66 107/92/66 75/94/66
f 77/95/66 108/96/66 76/93/66
f 78/97/66 109/98/66 77/95/66
f 78/97/66 111/99/66 110/100/66
f 79/101/66 112/102/66 111/99/66
f 81/103/66 112/102/66 80/104/66
f 81/103/66 114/105/66 113/106/66
f 83/107/66 114/105/66 82/108/66
f 84/109/66 115/110/66 83/107/66
f 85/69/66 116/111/66 84/109/66
f 85/69/66 118/112/66 117/113/66
f 86/70/66 119/114/66 118/112/66
f 88/115/66 119/114/66 87/116/66
f 88/115/66 121/117/66 120/118/66
f 90/119/66 121/117/66 89/120/66
f 91/121/66 122/122/66 90/119/66
f 91/121/66 124/123/66 123/124/66
f 93/125/66 124/123/66 92/126/66
f 93/125/66 126/127/66 125/128/66
f 95/129/66 126/127/66 94/130/66
f 95/129/66 128/131/66 127/132/66
f 66/72/66 128/131/66 96/133/66
f 147/107/66 139/94/66 131/75/66
f 72/88/8 137/87/8 73/87/8
f 86/70/22 151/116/22 87/116/22
f 73/87/9 138/91/9 74/91/9
f 87/116/23 152/115/23 88/115/23
f 74/91/10 139/94/10 75/94/10
f 88/115/24 153/120/24 89/120/24
f 75/94/11 140/93/11 76/93/11
f 89/120/25 154/119/25 90/119/25
f 76/93/12 141/95/12 77/95/12
f 90/119/26 155/121/26 91/121/26
f 77/95/13 142/97/13 78/97/13
f 91/121/27 156/126/27 92/126/27
f 78/97/14 143/101/14 79/101/14
f 66/72/1 129/76/1 65/76/1
f 92/126/28 157/125/28 93/125/28
f 79/101/15 144/104/15 80/104/15
f 65/76/2 131/75/2 67/75/2
f 93/125/29 158/130/29 94/130/29
f 80/104/16 145/103/16 81/103/16
f 67/75/3 132/77/3 68/77/3
f 94/130/30 159/129/30 95/129/30
f 81/103/17 146/108/17 82/108/17
f 68/77/4 133/82/4 69/82/4
f 95/129/32 160/133/32 96/133/32
f 82/108/18 147/107/18 83/107/18
f 69/82/5 134/81/5 70/81/5
f 96/133/33 130/72/33 66/72/33
f 83/107/19 148/109/19 84/109/19
f 70/81/6 135/85/6 71/85/6
f 84/109/20 149/69/20 85/69/20
f 71/85/7 136/88/7 72/88/7
f 2/1/1 4/4/1 3/2/1
f 4/4/2 6/6/2 5/5/2
f 6/6/3 8/8/3 7/7/3
f 8/8/4 10/10/4 9/9/4
f 10/10/5 12/12/5 11/11/5
f 12/12/6 14/14/6 13/13/6
f 14/14/7 16/16/7 15/15/7
f 16/16/8 18/18/8 17/17/8
f 18/18/9 20/20/9 19/19/9
f 20/20/10 22/22/10 21/21/10
f 22/22/11 24/24/11 23/23/11
f 24/24/12 26/26/12 25/25/12
f 26/26/13 28/28/13 27/27/13
f 28/28/14 30/30/14 29/29/14
f 30/30/15 32/32/15 31/31/15
f 32/32/16 34/34/16 33/33/16
f 34/34/17 36/36/17 35/35/17
f 36/36/18 38/38/18 37/37/18
f 38/38/19 40/40/19 39/39/19
f 40/40/20 42/42/20 41/41/20
f 42/42/21 44/44/21 43/43/21
f 44/44/22 46/46/22 45/45/22
f 46/46/23 48/48/23 47/47/23
f 48/48/24 50/50/24 49/49/24
f 50/50/25 52/52/25 51/51/25
f 52/52/26 54/54/26 53/53/26
f 54/54/27 56/56/27 55/55/27
f 56/56/28 58/58/28 57/57/28
f 58/58/29 60/60/29 59/59/29
f 60/60/30 62/62/30 61/61/30
f 20/20/31 106/20/31 107/22/31
f 62/62/32 64/64/32 63/63/32
f 64/64/33 2/71/33 1/65/33
f 63/68/34 1/134/34 3/135/34
f 3/135/34 5/136/34 7/137/34
f 7/137/34 9/138/34 11/139/34
f 11/139/34 13/140/34 15/141/34
f 15/141/34 17/142/34 19/143/34
f 19/143/34 21/144/34 23/145/34
f 23/145/34 25/146/34 27/147/34
f 27/147/34 29/148/34 31/66/34
f 31/66/34 33/149/34 35/150/34
f 35/150/34 37/151/34 39/152/34
f 39/152/34 41/153/34 43/154/34
f 43/154/34 45/155/34 47/67/34
f 47/67/34 49/156/34 51/157/34
f 51/157/34 53/158/34 55/159/34
f 55/159/34 57/160/34 59/161/34
f 59/161/34 61/162/34 63/68/34
f 63/68/34 3/135/34 7/137/34
f 7/137/34 11/139/34 15/141/34
f 15/141/34 19/143/34 23/145/34
f 23/145/34 27/147/34 31/66/34
f 31/66/34 35/150/34 39/152/34
f 39/152/34 43/154/34 47/67/34
f 47/67/34 51/157/34 55/159/34
f 55/159/34 59/161/34 63/68/34
f 63/68/34 7/137/34 15/141/34
f 15/141/34 23/145/34 31/66/34
f 31/66/34 39/152/34 47/67/34
f 47/67/34 55/159/34 63/68/34
f 63/68/34 15/141/34 31/66/34
f 85/69/21 149/69/21 150/70/21
f 38/38/35 115/38/35 116/40/35
f 58/58/36 56/56/36 124/56/36
f 12/12/37 102/12/37 103/14/37
f 30/30/38 111/30/38 112/32/38
f 48/48/39 120/48/39 121/50/39
f 4/4/40 97/4/40 99/6/40
f 24/24/41 22/22/41 107/22/41
f 42/42/42 40/40/42 116/40/42
f 60/60/43 58/58/43 125/58/43
f 16/16/44 14/14/44 103/14/44
f 34/34/45 32/32/45 112/32/45
f 52/52/46 50/50/46 121/50/46
f 8/8/47 6/6/47 99/6/47
f 24/24/48 108/24/48 109/26/48
f 44/44/49 42/42/49 117/42/49
f 62/62/50 60/60/50 126/60/50
f 16/16/51 104/16/51 105/18/51
f 36/36/52 34/34/52 113/34/52
f 52/52/53 122/52/53 123/54/53
f 8/8/54 100/8/54 101/10/54
f 28/28/55 26/26/55 109/26/55
f 44/44/56 118/44/56 119/46/56
f 62/62/57 127/62/57 128/64/57
f 20/20/58 18/18/58 105/18/58
f 36/36/59 114/36/59 115/38/59
f 54/54/60 123/54/60 124/56/60
f 12/12/61 10/10/61 101/10/61
f 30/30/62 28/28/62 110/28/62
f 48/48/63 46/46/63 119/46/63
f 2/1/64 98/1/64 97/4/64
f 2/71/65 64/64/65 128/64/65
f 66/72/66 65/76/66 97/73/66
f 67/75/66 99/78/66 97/73/66
f 68/77/66 100/80/66 99/78/66
f 68/77/66 69/82/66 101/79/66
f 70/81/66 102/84/66 101/79/66
f 70/81/66 71/85/66 103/83/66
f 71/85/66 72/88/66 104/86/66
f 73/87/66 105/90/66 104/86/66
f 73/87/66 74/91/66 106/89/66
f 74/91/66 75/94/66 107/92/66
f 76/93/66 108/96/66 107/92/66
f 77/95/66 109/98/66 108/96/66
f 78/97/66 110/100/66 109/98/66
f 78/97/66 79/101/66 111/99/66
f 79/101/66 80/104/66 112/102/66
f 81/103/66 113/106/66 112/102/66
f 81/103/66 82/108/66 114/105/66
f 83/107/66 115/110/66 114/105/66
f 84/109/66 116/111/66 115/110/66
f 85/69/66 117/113/66 116/111/66
f 85/69/66 86/70/66 118/112/66
f 86/70/66 87/116/66 119/114/66
f 88/115/66 120/118/66 119/114/66
f 88/115/66 89/120/66 121/117/66
f 90/119/66 122/122/66 121/117/66
f 91/121/66 123/124/66 122/122/66
f 91/121/66 92/126/66 124/123/66
f 93/125/66 125/128/66 124/123/66
f 93/125/66 94/130/66 126/127/66
f 95/129/66 127/132/66 126/127/66
f 95/129/66 96/133/66 128/131/66
f 66/72/66 98/74/66 128/131/66
f 131/75/66 129/76/66 130/72/66
f 130/72/66 160/133/66 159/129/66
f 159/129/66 158/130/66 157/125/66
f 157/125/66 156/126/66 155/121/66
f 155/121/66 154/119/66 153/120/66
f 153/120/66 152/115/66 151/116/66
f 151/116/66 150/70/66 149/69/66
f 149/69/66 148/109/66 147/107/66
f 147/107/66 146/108/66 145/103/66
f 145/103/66 144/104/66 143/101/66
f 143/101/66 142/97/66 141/95/66
f 141/95/66 140/93/66 139/94/66
f 139/94/66 138/91/66 137/87/66
f 137/87/66 136/88/66 135/85/66
f 135/85/66 134/81/66 133/82/66
f 133/82/66 132/77/66 131/75/66
f 131/75/66 130/72/66 159/129/66
f 159/129/66 157/125/66 155/121/66
f 155/121/66 153/120/66 151/116/66
f 151/116/66 149/69/66 147/107/66
f 147/107/66 145/103/66 143/101/66
f 143/101/66 141/95/66 139/94/66
f 139/94/66 137/87/66 135/85/66
f 135/85/66 133/82/66 131/75/66
f 131/75/66 159/129/66 155/121/66
f 155/121/66 151/116/66 147/107/66
f 147/107/66 143/101/66 139/94/66
f 139/94/66 135/85/66 131/75/66
f 131/75/66 155/121/66 147/107/66
f 72/88/8 136/88/8 137/87/8
f 86/70/22 150/70/22 151/116/22
f 73/87/9 137/87/9 138/91/9
f 87/116/23 151/116/23 152/115/23
f 74/91/10 138/91/10 139/94/10
f 88/115/24 152/115/24 153/120/24
f 75/94/11 139/94/11 140/93/11
f 89/120/25 153/120/25 154/119/25
f 76/93/12 140/93/12 141/95/12
f 90/119/26 154/119/26 155/121/26
f 77/95/13 141/95/13 142/97/13
f 91/121/27 155/121/27 156/126/27
f 78/97/14 142/97/14 143/101/14
f 66/72/1 130/72/1 129/76/1
f 92/126/28 156/126/28 157/125/28
f 79/101/15 143/101/15 144/104/15
f 65/76/2 129/76/2 131/75/2
f 93/125/29 157/125/29 158/130/29
f 80/104/16 144/104/16 145/103/16
f 67/75/3 131/75/3 132/77/3
f 94/130/30 158/130/30 159/129/30
f 81/103/17 145/103/17 146/108/17
f 68/77/4 132/77/4 133/82/4
f 95/129/32 159/129/32 160/133/32
f 82/108/18 146/108/18 147/107/18
f 69/82/5 133/82/5 134/81/5
f 96/133/33 160/133/33 130/72/33
f 83/107/19 147/107/19 148/109/19
f 70/81/6 134/81/6 135/85/6
f 84/109/20 148/109/20 149/69/20
f 71/85/7 135/85/7 136/88/7
