# Blender 3.6.5
# www.blender.org
mtllib Earth_Base.mtl
o Base
v 0.000000 -0.142151 -1.019650
v 0.000000 0.142151 -0.750150
v 0.198924 -0.142151 -1.000058
v 0.146347 0.142151 -0.735736
v 0.390203 -0.142151 -0.942034
v 0.287070 0.142151 -0.693048
v 0.566487 -0.142151 -0.847808
v 0.416761 0.142151 -0.623727
v 0.721002 -0.142151 -0.721002
v 0.530436 0.142151 -0.530436
v 0.847808 -0.142151 -0.566487
v 0.623727 0.142151 -0.416761
v 0.942034 -0.142151 -0.390203
v 0.693048 0.142151 -0.287070
v 1.000058 -0.142151 -0.198924
v 0.735736 0.142151 -0.146347
v 1.019650 -0.142151 0.000000
v 0.750150 0.142151 -0.000000
v 1.000058 -0.142151 0.198924
v 0.735736 0.142151 0.146347
v 0.942034 -0.142151 0.390203
v 0.693048 0.142151 0.287070
v 0.847808 -0.142151 0.566487
v 0.623727 0.142151 0.416761
v 0.721002 -0.142151 0.721002
v 0.530436 0.142151 0.530436
v 0.566487 -0.142151 0.847808
v 0.416761 0.142151 0.623727
v 0.390203 -0.142151 0.942034
v 0.287070 0.142151 0.693048
v 0.198924 -0.142151 1.000058
v 0.146347 0.142151 0.735736
v 0.000000 -0.142151 1.019650
v 0.000000 0.142151 0.750150
v -0.198924 -0.142151 1.000058
v -0.146347 0.142151 0.735736
v -0.390203 -0.142151 0.942034
v -0.287070 0.142151 0.693048
v -0.566487 -0.142151 0.847808
v -0.416761 0.142151 0.623727
v -0.721002 -0.142151 0.721002
v -0.530436 0.142151 0.530436
v -0.847808 -0.142151 0.566487
v -0.623727 0.142151 0.416761
v -0.942034 -0.142151 0.390203
v -0.693048 0.142151 0.287070
v -1.000058 -0.142151 0.198924
v -0.735736 0.142151 0.146347
v -1.019650 -0.142151 0.000000
v -0.750150 0.142151 -0.000000
v -1.000058 -0.142151 -0.198924
v -0.735736 0.142151 -0.146347
v -0.942034 -0.142151 -0.390203
v -0.693048 0.142151 -0.287070
v -0.847808 -0.142151 -0.566487
v -0.623727 0.142151 -0.416761
v -0.721002 -0.142151 -0.721002
v -0.530436 0.142151 -0.530436
v -0.566487 -0.142151 -0.847808
v -0.416761 0.142151 -0.623727
v -0.390203 -0.142151 -0.942034
v -0.287070 0.142151 -0.693048
v -0.198924 -0.142151 -1.000058
v -0.146347 0.142151 -0.735736
v 0.000000 0.127515 -0.279637
v 0.000000 2.070278 -0.279637
v 0.054554 0.127515 -0.274264
v 0.054554 2.070278 -0.274264
v 0.107013 0.127515 -0.258351
v 0.107013 2.070278 -0.258351
v 0.155358 0.127515 -0.232510
v 0.155358 2.070278 -0.232510
v 0.197733 0.127515 -0.197733
v 0.197733 2.070278 -0.197734
v 0.232510 0.127515 -0.155358
v 0.232510 2.070278 -0.155358
v 0.258351 0.127515 -0.107013
v 0.258351 2.070278 -0.107013
v 0.274264 0.127515 -0.054554
v 0.274264 2.070278 -0.054555
v 0.279637 0.127515 -0.000000
v 0.279637 2.070278 -0.000000
v 0.274264 0.127515 0.054554
v 0.274264 2.070278 0.054554
v 0.258351 0.127515 0.107013
v 0.258351 2.070278 0.107013
v 0.232510 0.127515 0.155358
v 0.232510 2.070278 0.155358
v 0.197733 0.127515 0.197733
v 0.197733 2.070278 0.197733
v 0.155358 0.127515 0.232510
v 0.155358 2.070278 0.232510
v 0.107013 0.127515 0.258351
v 0.107013 2.070278 0.258351
v 0.054554 0.127515 0.274264
v 0.054554 2.070278 0.274264
v 0.000000 0.127515 0.279637
v 0.000000 2.070278 0.279637
v -0.054554 0.127515 0.274264
v -0.054554 2.070278 0.274264
v -0.107012 0.127515 0.258351
v -0.107012 2.070278 0.258351
v -0.155358 0.127515 0.232510
v -0.155358 2.070278 0.232510
v -0.197733 0.127515 0.197733
v -0.197733 2.070278 0.197733
v -0.232510 0.127515 0.155358
v -0.232510 2.070278 0.155358
v -0.258351 0.127515 0.107013
v -0.258351 2.070278 0.107013
v -0.274264 0.127515 0.054554
v -0.274264 2.070278 0.054554
v -0.279637 0.127515 -0.000000
v -0.279637 2.070278 -0.000000
v -0.274264 0.127515 -0.054554
v -0.274264 2.070278 -0.054555
v -0.258351 0.127515 -0.107013
v -0.258351 2.070278 -0.107013
v -0.232510 0.127515 -0.155358
v -0.232510 2.070278 -0.155358
v -0.197733 0.127515 -0.197733
v -0.197733 2.070278 -0.197734
v -0.155358 0.127515 -0.232510
v -0.155358 2.070278 -0.232510
v -0.107012 0.127515 -0.258351
v -0.107012 2.070278 -0.258351
v -0.054554 0.127515 -0.274264
v -0.054554 2.070278 -0.274264
vn 0.0713 0.6862 -0.7239
vn 0.2112 0.6862 -0.6961
vn 0.3429 0.6862 -0.6415
vn 0.4615 0.6862 -0.5623
vn 0.5623 0.6862 -0.4615
vn 0.6415 0.6862 -0.3429
vn 0.6961 0.6862 -0.2112
vn 0.7239 0.6862 -0.0713
vn 0.7239 0.6862 0.0713
vn 0.6961 0.6862 0.2112
vn 0.6415 0.6862 0.3429
vn 0.5623 0.6862 0.4615
vn 0.4615 0.6862 0.5623
vn 0.3429 0.6862 0.6415
vn 0.2112 0.6862 0.6961
vn 0.0713 0.6862 0.7239
vn -0.0713 0.6862 0.7239
vn -0.2112 0.6862 0.6961
vn -0.3429 0.6862 0.6415
vn -0.4615 0.6862 0.5623
vn -0.5623 0.6862 0.4615
vn -0.6415 0.6862 0.3429
vn -0.6961 0.6862 0.2112
vn -0.7239 0.6862 0.0713
vn -0.7239 0.6862 -0.0713
vn -0.6961 0.6862 -0.2112
vn -0.6415 0.6862 -0.3429
vn -0.5623 0.6862 -0.4615
vn -0.4615 0.6862 -0.5623
vn -0.3429 0.6862 -0.6415
vn -0.0000 1.0000 -0.0000
vn -0.2112 0.6862 -0.6961
vn -0.0713 0.6862 -0.7239
vn -0.0000 -1.0000 -0.0000
vn 0.0980 -0.0000 -0.9952
vn 0.2903 -0.0000 -0.9569
vn 0.4714 -0.0000 -0.8819
vn 0.6344 -0.0000 -0.7730
vn 0.7730 -0.0000 -0.6344
vn 0.8819 -0.0000 -0.4714
vn 0.9569 -0.0000 -0.2903
vn 0.9952 -0.0000 -0.0980
vn 0.9952 -0.0000 0.0980
vn 0.9569 -0.0000 0.2903
vn 0.8819 -0.0000 0.4714
vn 0.7730 -0.0000 0.6344
vn 0.6344 -0.0000 0.7730
vn 0.4714 -0.0000 0.8819
vn 0.2903 -0.0000 0.9569
vn 0.0980 -0.0000 0.9952
vn -0.0980 -0.0000 0.9952
vn -0.2903 -0.0000 0.9569
vn -0.4714 -0.0000 0.8819
vn -0.6344 -0.0000 0.7730
vn -0.7730 -0.0000 0.6344
vn -0.8819 -0.0000 0.4714
vn -0.9569 -0.0000 0.2903
vn -0.9952 -0.0000 0.0980
vn -0.9952 -0.0000 -0.0980
vn -0.9569 -0.0000 -0.2903
vn -0.8819 -0.0000 -0.4714
vn -0.7730 -0.0000 -0.6344
vn -0.6344 -0.0000 -0.7730
vn -0.4714 -0.0000 -0.8819
vn -0.2903 -0.0000 -0.9569
vn -0.0980 -0.0000 -0.9952
vt 1.000000 1.000000
vt 0.968750 0.500000
vt 1.000000 0.500000
vt 0.968750 1.000000
vt 0.937500 0.500000
vt 0.937500 1.000000
vt 0.906250 0.500000
vt 0.875000 1.000000
vt 0.875000 0.500000
vt 0.843750 0.500000
vt 0.812500 1.000000
vt 0.812500 0.500000
vt 0.781250 0.500000
vt 0.750000 1.000000
vt 0.750000 0.500000
vt 0.718750 0.500000
vt 0.718750 1.000000
vt 0.687500 0.500000
vt 0.687500 1.000000
vt 0.656250 0.500000
vt 0.625000 1.000000
vt 0.625000 0.500000
vt 0.593750 0.500000
vt 0.593750 1.000000
vt 0.562500 0.500000
vt 0.562500 1.000000
vt 0.531250 0.500000
vt 0.500000 1.000000
vt 0.500000 0.500000
vt 0.468750 0.500000
vt 0.437500 1.000000
vt 0.437500 0.500000
vt 0.406250 0.500000
vt 0.375000 1.000000
vt 0.375000 0.500000
vt 0.343750 0.500000
vt 0.312500 1.000000
vt 0.312500 0.500000
vt 0.281250 0.500000
vt 0.250000 1.000000
vt 0.250000 0.500000
vt 0.218750 0.500000
vt 0.218750 1.000000
vt 0.187500 0.500000
vt 0.187500 1.000000
vt 0.156250 0.500000
vt 0.125000 1.000000
vt 0.125000 0.500000
vt 0.093750 0.500000
vt 0.093750 1.000000
vt 0.062500 0.500000
vt 0.158156 0.028269
vt 0.471731 0.158156
vt 0.341844 0.471731
vt 0.062500 1.000000
vt 0.031250 0.500000
vt 0.031250 1.000000
vt 0.000000 0.500000
vt 0.796822 0.014612
vt 0.514612 0.203178
vt 0.703178 0.485388
vt 0.906250 1.000000
vt 0.843750 1.000000
vt 0.781250 1.000000
vt 0.656250 1.000000
vt 0.531250 1.000000
vt 0.468750 1.000000
vt 0.406250 1.000000
vt 0.343750 1.000000
vt 0.281250 1.000000
vt 0.156250 1.000000
vt 0.296822 0.485388
vt 0.250000 0.490000
vt 0.203178 0.485388
vt 0.158156 0.471731
vt 0.116663 0.449553
vt 0.080294 0.419706
vt 0.050447 0.383337
vt 0.028269 0.341844
vt 0.014612 0.296822
vt 0.010000 0.250000
vt 0.014612 0.203178
vt 0.028269 0.158156
vt 0.050447 0.116663
vt 0.080294 0.080294
vt 0.116663 0.050447
vt 0.203178 0.014612
vt 0.250000 0.010000
vt 0.296822 0.014612
vt 0.341844 0.028269
vt 0.383337 0.050447
vt 0.419706 0.080294
vt 0.449553 0.116663
vt 0.485388 0.203178
vt 0.490000 0.250000
vt 0.485388 0.296822
vt 0.471731 0.341844
vt 0.449553 0.383337
vt 0.419706 0.419706
vt 0.383337 0.449553
vt 0.000000 1.000000
vt 0.750000 0.490000
vt 0.796822 0.485388
vt 0.841844 0.471731
vt 0.883337 0.449553
vt 0.919706 0.419706
vt 0.949553 0.383337
vt 0.971731 0.341844
vt 0.985388 0.296822
vt 0.990000 0.250000
vt 0.985388 0.203178
vt 0.971731 0.158156
vt 0.949553 0.116663
vt 0.919706 0.080294
vt 0.883337 0.050447
vt 0.841844 0.028269
vt 0.750000 0.010000
vt 0.703178 0.014612
vt 0.658156 0.028269
vt 0.616663 0.050447
vt 0.580294 0.080294
vt 0.550447 0.116663
vt 0.528269 0.158156
vt 0.510000 0.250000
vt 0.514612 0.296822
vt 0.528269 0.341844
vt 0.550447 0.383337
vt 0.580294 0.419706
vt 0.616663 0.449553
vt 0.658156 0.471731
s 0
f 2/1/1 3/2/1 1/3/1
f 4/4/2 5/5/2 3/2/2
f 6/6/3 7/7/3 5/5/3
f 7/7/4 10/8/4 9/9/4
f 10/8/5 11/10/5 9/9/5
f 11/10/6 14/11/6 13/12/6
f 14/11/7 15/13/7 13/12/7
f 15/13/8 18/14/8 17/15/8
f 18/14/9 19/16/9 17/15/9
f 20/17/10 21/18/10 19/16/10
f 22/19/11 23/20/11 21/18/11
f 23/20/12 26/21/12 25/22/12
f 26/21/13 27/23/13 25/22/13
f 28/24/14 29/25/14 27/23/14
f 30/26/15 31/27/15 29/25/15
f 31/27/16 34/28/16 33/29/16
f 34/28/17 35/30/17 33/29/17
f 35/30/18 38/31/18 37/32/18
f 38/31/19 39/33/19 37/32/19
f 39/33/20 42/34/20 41/35/20
f 42/34/21 43/36/21 41/35/21
f 43/36/22 46/37/22 45/38/22
f 46/37/23 47/39/23 45/38/23
f 47/39/24 50/40/24 49/41/24
f 50/40/25 51/42/25 49/41/25
f 52/43/26 53/44/26 51/42/26
f 54/45/27 55/46/27 53/44/27
f 55/46/28 58/47/28 57/48/28
f 58/47/29 59/49/29 57/48/29
f 60/50/30 61/51/30 59/49/30
f 38/52/31 22/53/31 6/54/31
f 62/55/32 63/56/32 61/51/32
f 64/57/33 1/58/33 63/56/33
f 31/59/34 47/60/34 63/61/34
f 66/1/35 67/2/35 65/3/35
f 68/4/36 69/5/36 67/2/36
f 70/6/37 71/7/37 69/5/37
f 72/62/38 73/9/38 71/7/38
f 74/8/39 75/10/39 73/9/39
f 76/63/40 77/12/40 75/10/40
f 78/11/41 79/13/41 77/12/41
f 80/64/42 81/15/42 79/13/42
f 82/14/43 83/16/43 81/15/43
f 84/17/44 85/18/44 83/16/44
f 86/19/45 87/20/45 85/18/45
f 88/65/46 89/22/46 87/20/46
f 90/21/47 91/23/47 89/22/47
f 92/24/48 93/25/48 91/23/48
f 94/26/49 95/27/49 93/25/49
f 96/66/50 97/29/50 95/27/50
f 98/28/51 99/30/51 97/29/51
f 100/67/52 101/32/52 99/30/52
f 102/31/53 103/33/53 101/32/53
f 104/68/54 105/35/54 103/33/54
f 106/34/55 107/36/55 105/35/55
f 108/69/56 109/38/56 107/36/56
f 110/37/57 111/39/57 109/38/57
f 112/70/58 113/41/58 111/39/58
f 114/40/59 115/42/59 113/41/59
f 116/43/60 117/44/60 115/42/60
f 118/45/61 119/46/61 117/44/61
f 120/71/62 121/48/62 119/46/62
f 122/47/63 123/49/63 121/48/63
f 124/50/64 125/51/64 123/49/64
f 102/52/31 86/53/31 70/54/31
f 126/55/65 127/56/65 125/51/65
f 128/57/66 65/58/66 127/56/66
f 95/59/34 111/60/34 127/61/34
f 2/1/1 4/4/1 3/2/1
f 4/4/2 6/6/2 5/5/2
f 6/6/3 8/62/3 7/7/3
f 7/7/4 8/62/4 10/8/4
f 10/8/5 12/63/5 11/10/5
f 11/10/6 12/63/6 14/11/6
f 14/11/7 16/64/7 15/13/7
f 15/13/8 16/64/8 18/14/8
f 18/14/9 20/17/9 19/16/9
f 20/17/10 22/19/10 21/18/10
f 22/19/11 24/65/11 23/20/11
f 23/20/12 24/65/12 26/21/12
f 26/21/13 28/24/13 27/23/13
f 28/24/14 30/26/14 29/25/14
f 30/26/15 32/66/15 31/27/15
f 31/27/16 32/66/16 34/28/16
f 34/28/17 36/67/17 35/30/17
f 35/30/18 36/67/18 38/31/18
f 38/31/19 40/68/19 39/33/19
f 39/33/20 40/68/20 42/34/20
f 42/34/21 44/69/21 43/36/21
f 43/36/22 44/69/22 46/37/22
f 46/37/23 48/70/23 47/39/23
f 47/39/24 48/70/24 50/40/24
f 50/40/25 52/43/25 51/42/25
f 52/43/26 54/45/26 53/44/26
f 54/45/27 56/71/27 55/46/27
f 55/46/28 56/71/28 58/47/28
f 58/47/29 60/50/29 59/49/29
f 60/50/30 62/55/30 61/51/30
f 6/54/31 4/72/31 2/73/31
f 2/73/31 64/74/31 62/75/31
f 62/75/31 60/76/31 58/77/31
f 58/77/31 56/78/31 54/79/31
f 54/79/31 52/80/31 50/81/31
f 50/81/31 48/82/31 46/83/31
f 46/83/31 44/84/31 42/85/31
f 42/85/31 40/86/31 38/52/31
f 38/52/31 36/87/31 34/88/31
f 34/88/31 32/89/31 30/90/31
f 30/90/31 28/91/31 26/92/31
f 26/92/31 24/93/31 22/53/31
f 22/53/31 20/94/31 18/95/31
f 18/95/31 16/96/31 14/97/31
f 14/97/31 12/98/31 10/99/31
f 10/99/31 8/100/31 6/54/31
f 6/54/31 2/73/31 62/75/31
f 62/75/31 58/77/31 54/79/31
f 54/79/31 50/81/31 46/83/31
f 46/83/31 42/85/31 38/52/31
f 38/52/31 34/88/31 30/90/31
f 30/90/31 26/92/31 22/53/31
f 22/53/31 18/95/31 14/97/31
f 14/97/31 10/99/31 6/54/31
f 6/54/31 62/75/31 54/79/31
f 54/79/31 46/83/31 38/52/31
f 38/52/31 30/90/31 22/53/31
f 22/53/31 14/97/31 6/54/31
f 6/54/31 54/79/31 38/52/31
f 62/55/32 64/57/32 63/56/32
f 64/57/33 2/101/33 1/58/33
f 63/61/34 1/102/34 3/103/34
f 3/103/34 5/104/34 7/105/34
f 7/105/34 9/106/34 11/107/34
f 11/107/34 13/108/34 15/109/34
f 15/109/34 17/110/34 19/111/34
f 19/111/34 21/112/34 23/113/34
f 23/113/34 25/114/34 27/115/34
f 27/115/34 29/116/34 31/59/34
f 31/59/34 33/117/34 35/118/34
f 35/118/34 37/119/34 39/120/34
f 39/120/34 41/121/34 43/122/34
f 43/122/34 45/123/34 47/60/34
f 47/60/34 49/124/34 51/125/34
f 51/125/34 53/126/34 55/127/34
f 55/127/34 57/128/34 59/129/34
f 59/129/34 61/130/34 63/61/34
f 63/61/34 3/103/34 7/105/34
f 7/105/34 11/107/34 15/109/34
f 15/109/34 19/111/34 23/113/34
f 23/113/34 27/115/34 31/59/34
f 31/59/34 35/118/34 39/120/34
f 39/120/34 43/122/34 47/60/34
f 47/60/34 51/125/34 55/127/34
f 55/127/34 59/129/34 63/61/34
f 63/61/34 7/105/34 15/109/34
f 15/109/34 23/113/34 31/59/34
f 31/59/34 39/120/34 47/60/34
f 47/60/34 55/127/34 63/61/34
f 63/61/34 15/109/34 31/59/34
f 66/1/35 68/4/35 67/2/35
f 68/4/36 70/6/36 69/5/36
f 70/6/37 72/62/37 71/7/37
f 72/62/38 74/8/38 73/9/38
f 74/8/39 76/63/39 75/10/39
f 76/63/40 78/11/40 77/12/40
f 78/11/41 80/64/41 79/13/41
f 80/64/42 82/14/42 81/15/42
f 82/14/43 84/17/43 83/16/43
f 84/17/44 86/19/44 85/18/44
f 86/19/45 88/65/45 87/20/45
f 88/65/46 90/21/46 89/22/46
f 90/21/47 92/24/47 91/23/47
f 92/24/48 94/26/48 93/25/48
f 94/26/49 96/66/49 95/27/49
f 96/66/50 98/28/50 97/29/50
f 98/28/51 100/67/51 99/30/51
f 100/67/52 102/31/52 101/32/52
f 102/31/53 104/68/53 103/33/53
f 104/68/54 106/34/54 105/35/54
f 106/34/55 108/69/55 107/36/55
f 108/69/56 110/37/56 109/38/56
f 110/37/57 112/70/57 111/39/57
f 112/70/58 114/40/58 113/41/58
f 114/40/59 116/43/59 115/42/59
f 116/43/60 118/45/60 117/44/60
f 118/45/61 120/71/61 119/46/61
f 120/71/62 122/47/62 121/48/62
f 122/47/63 124/50/63 123/49/63
f 124/50/64 126/55/64 125/51/64
f 70/54/31 68/72/31 66/73/31
f 66/73/31 128/74/31 126/75/31
f 126/75/31 124/76/31 122/77/31
f 122/77/31 120/78/31 118/79/31
f 118/79/31 116/80/31 114/81/31
f 114/81/31 112/82/31 110/83/31
f 110/83/31 108/84/31 106/85/31
f 106/85/31 104/86/31 102/52/31
f 102/52/31 100/87/31 98/88/31
f 98/88/31 96/89/31 94/90/31
f 94/90/31 92/91/31 90/92/31
f 90/92/31 88/93/31 86/53/31
f 86/53/31 84/94/31 82/95/31
f 82/95/31 80/96/31 78/97/31
f 78/97/31 76/98/31 74/99/31
f 74/99/31 72/100/31 70/54/31
f 70/54/31 66/73/31 126/75/31
f 126/75/31 122/77/31 118/79/31
f 118/79/31 114/81/31 110/83/31
f 110/83/31 106/85/31 102/52/31
f 102/52/31 98/88/31 94/90/31
f 94/90/31 90/92/31 86/53/31
f 86/53/31 82/95/31 78/97/31
f 78/97/31 74/99/31 70/54/31
f 70/54/31 126/75/31 118/79/31
f 118/79/31 110/83/31 102/52/31
f 102/52/31 94/90/31 86/53/31
f 86/53/31 78/97/31 70/54/31
f 70/54/31 118/79/31 102/52/31
f 126/55/65 128/57/65 127/56/65
f 128/57/66 66/101/66 65/58/66
f 127/61/34 65/102/34 67/103/34
f 67/103/34 69/104/34 71/105/34
f 71/105/34 73/106/34 75/107/34
f 75/107/34 77/108/34 79/109/34
f 79/109/34 81/110/34 83/111/34
f 83/111/34 85/112/34 87/113/34
f 87/113/34 89/114/34 91/115/34
f 91/115/34 93/116/34 95/59/34
f 95/59/34 97/117/34 99/118/34
f 99/118/34 101/119/34 103/120/34
f 103/120/34 105/121/34 107/122/34
f 107/122/34 109/123/34 111/60/34
f 111/60/34 113/124/34 115/125/34
f 115/125/34 117/126/34 119/127/34
f 119/127/34 121/128/34 123/129/34
f 123/129/34 125/130/34 127/61/34
f 127/61/34 67/103/34 71/105/34
f 71/105/34 75/107/34 79/109/34
f 79/109/34 83/111/34 87/113/34
f 87/113/34 91/115/34 95/59/34
f 95/59/34 99/118/34 103/120/34
f 103/120/34 107/122/34 111/60/34
f 111/60/34 115/125/34 119/127/34
f 119/127/34 123/129/34 127/61/34
f 127/61/34 71/105/34 79/109/34
f 79/109/34 87/113/34 95/59/34
f 95/59/34 103/120/34 111/60/34
f 111/60/34 119/127/34 127/61/34
f 127/61/34 79/109/34 95/59/34
