# Blender 3.6.5
# www.blender.org
mtllib Perry_Tail.mtl
o Cola
v -0.242283 0.435103 0.991530
v -0.242283 0.415744 1.037189
v -0.277350 0.402595 1.004680
v -0.242283 0.401298 1.043032
v -0.242283 0.355640 1.023672
v -0.277350 0.388149 1.010523
v -0.277350 -0.000003 0.009351
v -0.242283 0.019357 -0.036307
v -0.242283 -0.060107 -0.004166
v -0.277350 -0.014448 0.015194
v 0.242283 0.435103 0.991530
v 0.277350 0.402595 1.004680
v 0.242283 0.415744 1.037189
v 0.242283 0.355640 1.023672
v 0.242283 0.401298 1.043032
v 0.277350 0.388149 1.010523
v 0.277350 -0.000003 0.009351
v 0.242283 0.019357 -0.036307
v 0.277350 -0.014448 0.015194
v 0.242283 -0.060107 -0.004166
vn -0.0000 -0.3750 -0.9270
vn -1.0000 -0.0000 -0.0000
vn -0.0000 0.9270 -0.3750
vn 1.0000 -0.0000 -0.0000
vn -0.0000 0.3750 0.9270
vn 0.5773 -0.7517 -0.3187
vn 0.5774 0.3187 -0.7517
vn -0.5773 -0.7517 -0.3187
vn -0.5774 0.3187 -0.7517
vn 0.7071 -0.6555 0.2651
vn 0.7071 -0.2652 -0.6555
vn 0.7071 0.6555 -0.2651
vn 0.7071 0.2651 0.6555
vn -0.7071 0.2651 0.6555
vn -0.7071 -0.6555 0.2651
vn -0.7071 0.6555 -0.2651
vn -0.7071 -0.2651 -0.6555
vn -0.0000 -0.9207 -0.3904
vn -0.0000 0.3904 -0.9207
vn -0.0000 -0.9270 0.3750
vn 0.7071 -0.2651 -0.6555
vn -0.7071 -0.2652 -0.6555
vt 0.502738 0.532030
vt 0.497262 0.558346
vt 0.497262 0.532030
vt 0.497262 0.500924
vt 0.502738 0.529202
vt 0.497262 0.529202
vt 0.543283 0.500000
vt 0.516967 0.529202
vt 0.516967 0.500000
vt 0.502738 0.440673
vt 0.497262 0.468951
vt 0.497262 0.440673
vt 0.515063 0.471779
vt 0.484937 0.498095
vt 0.484937 0.471779
vt 0.484937 0.440673
vt 0.497262 0.439749
vt 0.502738 0.439749
vt 0.515063 0.440673
vt 0.484937 0.529202
vt 0.497262 0.530125
vt 0.515063 0.529202
vt 0.502738 0.530125
vt 0.484937 0.469875
vt 0.502738 0.468951
vt 0.515063 0.498096
vt 0.502738 0.500924
vt 0.483033 0.529202
vt 0.484937 0.532030
vt 0.484937 0.558346
vt 0.515063 0.558346
vt 0.515063 0.532030
vt 0.483033 0.500000
vt 0.456717 0.529202
vt 0.456717 0.500000
vt 0.502738 0.558346
vt 0.543283 0.529202
vt 0.515063 0.469875
s 0
usemtl Material.013
f 15/1/1 2/2/1 13/3/1
f 17/4/2 16/5/2 12/6/2
f 9/7/3 14/8/3 20/9/3
f 6/10/4 7/11/4 3/12/4
f 9/13/5 18/14/5 8/15/5
f 1/16/6 2/17/6 3/12/6
f 4/18/7 5/19/7 6/10/7
f 11/20/8 12/6/8 13/21/8
f 14/22/9 15/23/9 16/5/9
f 1/16/10 7/11/10 8/24/10
f 4/18/11 3/12/11 2/17/11
f 5/19/12 10/25/12 6/10/12
f 8/15/13 10/25/13 9/13/13
f 17/4/14 20/26/14 19/27/14
f 11/28/15 17/4/15 12/6/15
f 14/8/16 19/27/16 20/9/16
f 15/1/17 12/6/17 16/5/17
f 11/29/18 2/2/18 1/30/18
f 5/31/19 15/1/19 14/32/19
f 18/33/20 1/34/20 8/35/20
f 15/1/1 4/36/1 2/2/1
f 17/4/2 19/27/2 16/5/2
f 9/7/3 5/37/3 14/8/3
f 6/10/4 10/25/4 7/11/4
f 9/13/5 20/26/5 18/14/5
f 1/16/10 3/12/10 7/11/10
f 4/18/21 6/10/21 3/12/21
f 5/19/12 9/38/12 10/25/12
f 8/15/13 7/11/13 10/25/13
f 17/4/14 18/14/14 20/26/14
f 11/28/15 18/33/15 17/4/15
f 14/8/16 16/5/16 19/27/16
f 15/1/22 13/3/22 12/6/22
f 11/29/18 13/3/18 2/2/18
f 5/31/19 4/36/19 15/1/19
f 18/33/20 11/28/20 1/34/20
